<svg xmlns="http://www.w3.org/2000/svg" viewBox="0 0 1920 1080" preserveAspectRatio="xMidYMid slice">
  <defs>
    <radialGradient id="grad1" cx="50%" cy="50%" r="50%" fx="50%" fy="50%">
      <stop offset="0%" stop-color="#4f46e5" stop-opacity="0.25"/>
      <stop offset="100%" stop-color="#4f46e5" stop-opacity="0"/>
    </radialGradient>
    <radialGradient id="grad2" cx="50%" cy="50%" r="50%" fx="50%" fy="50%">
      <stop offset="0%" stop-color="#ec4899" stop-opacity="0.25"/>
      <stop offset="100%" stop-color="#ec4899" stop-opacity="0"/>
    </radialGradient>
    <radialGradient id="grad3" cx="50%" cy="50%" r="50%" fx="50%" fy="50%">
      <stop offset="0%" stop-color="#0891b2" stop-opacity="0.2"/>
      <stop offset="100%" stop-color="#0891b2" stop-opacity="0"/>
    </radialGradient>
    <radialGradient id="grad4" cx="50%" cy="50%" r="50%" fx="50%" fy="50%">
      <stop offset="0%" stop-color="#7c3aed" stop-opacity="0.22"/>
      <stop offset="100%" stop-color="#7c3aed" stop-opacity="0"/>
    </radialGradient>
  </defs>

  <rect width="100%" height="100%" fill="#f8fafc"/>

  <ellipse cx="180" cy="200" rx="380" ry="350" fill="url(#grad1)"/>
  <ellipse cx="1740" cy="180" rx="420" ry="380" fill="url(#grad2)"/>
  <ellipse cx="200" cy="880" rx="360" ry="320" fill="url(#grad3)"/>
  <ellipse cx="1720" cy="900" rx="400" ry="360" fill="url(#grad4)"/>

  <ellipse cx="120" cy="540" rx="280" ry="400" fill="url(#grad1)" opacity="0.15"/>
  <ellipse cx="1800" cy="520" rx="300" ry="420" fill="url(#grad2)" opacity="0.15"/>
  <ellipse cx="960" cy="100" rx="500" ry="280" fill="url(#grad3)" opacity="0.12"/>
  <ellipse cx="960" cy="980" rx="520" ry="300" fill="url(#grad4)" opacity="0.12"/>

  <ellipse cx="150" cy="150" rx="120" ry="110" fill="url(#grad1)" opacity="0.3"/>
  <ellipse cx="1770" cy="130" rx="140" ry="130" fill="url(#grad2)" opacity="0.3"/>
  <ellipse cx="170" cy="930" rx="130" ry="120" fill="url(#grad3)" opacity="0.25"/>
  <ellipse cx="1750" cy="950" rx="150" ry="140" fill="url(#grad4)" opacity="0.25"/>
</svg>
