<svg xmlns="http://www.w3.org/2000/svg" viewBox="0 0 400 300">
  <defs>
    <linearGradient id="bg" x1="0%" y1="0%" x2="100%" y2="100%">
      <stop offset="0%" style="stop-color:#f8f9fa"/>
      <stop offset="100%" style="stop-color:#e9ecef"/>
    </linearGradient>
    <linearGradient id="chart" x1="0%" y1="100%" x2="0%" y2="0%">
      <stop offset="0%" style="stop-color:#4dabf7;stop-opacity:0.3"/>
      <stop offset="100%" style="stop-color:#4dabf7"/>
    </linearGradient>
  </defs>
  <rect width="400" height="300" fill="url(#bg)" rx="15"/>
  <line x1="60" y1="250" x2="60" y2="40" stroke="#adb5bd" stroke-width="2"/>
  <line x1="60" y1="250" x2="370" y2="250" stroke="#adb5bd" stroke-width="2"/>
  <polygon points="60,250 100,220 150,200 200,170 250,130 300,100 350,60 350,250" fill="url(#chart)"/>
  <polyline points="60,250 100,220 150,200 200,170 250,130 300,100 350,60" fill="none" stroke="#1971c2" stroke-width="4" stroke-linecap="round" stroke-linejoin="round"/>
  <circle cx="100" cy="220" r="6" fill="#1971c2"/>
  <circle cx="150" cy="200" r="6" fill="#1971c2"/>
  <circle cx="200" cy="170" r="6" fill="#1971c2"/>
  <circle cx="250" cy="130" r="6" fill="#1971c2"/>
  <circle cx="300" cy="100" r="6" fill="#1971c2"/>
  <circle cx="350" cy="60" r="8" fill="#40c057"/>
  <circle cx="350" cy="60" r="14" fill="#40c057" opacity="0.3"/>
  <text x="350" y="45" text-anchor="middle" fill="#40c057" font-family="Arial" font-size="14" font-weight="bold">+127%</text>
  <text x="30" y="140" fill="#495057" font-family="Arial" font-size="12" font-weight="600" transform="rotate(-90 30,140)">GROWTH</text>
  <text x="180" y="275" fill="#495057" font-family="Arial" font-size="12" text-anchor="middle" font-weight="600">TIME</text>
  <rect x="80" y="60" width="60" height="30" rx="4" fill="#4dabf7" opacity="0.2"/>
  <text x="110" y="80" text-anchor="middle" fill="#1971c2" font-family="Arial" font-size="12" font-weight="600">USERS</text>
  <rect x="220" y="60" width="60" height="30" rx="4" fill="#40c057" opacity="0.2"/>
  <text x="250" y="80" text-anchor="middle" fill="#2f9e44" font-family="Arial" font-size="12" font-weight="600">REVENUE</text>
</svg>